<svg xmlns="http://www.w3.org/2000/svg" xmlns:xlink="http://www.w3.org/1999/xlink" enable-background="new 0 0 64 64" viewBox="0 0 64 64"><defs><path id="a" d="M54.26,36.36l4.55,2.48c-0.58-0.31-1.23-0.51-1.93-0.55c-0.32-0.02-0.65-0.01-0.99,0.04l-4.55-2.48c0.34-0.05,0.67-0.06,0.99-0.04C53.03,35.85,53.69,36.04,54.26,36.36z" enable-background="new"/></defs><clipPath id="b"><use overflow="visible" xlink:href="#a"/></clipPath><g clip-path="url(#b)"><path fill="#377563" d="M55.9,38.33l-4.55-2.48c0.34-0.05,0.67-0.06,0.99-0.04c0.31,0.02,0.61,0.07,0.9,0.14l4.55,2.48c-0.29-0.07-0.59-0.12-0.9-0.14C56.57,38.27,56.24,38.28,55.9,38.33"/><path fill="#357261" d="M57.79,38.43l-4.55-2.48c0.3,0.08,0.59,0.19,0.87,0.32l4.55,2.48C58.38,38.61,58.09,38.51,57.79,38.43"/><path fill="#33705e" d="M58.65,38.75l-4.55-2.48c0.06,0.03,0.11,0.06,0.16,0.08l4.55,2.48C58.76,38.8,58.71,38.78,58.65,38.75"/></g><defs><path id="c" d="M52.94,49.67l-4.55-2.48c-0.61-0.33-1.14-0.8-1.55-1.38c-0.38-0.53-0.66-1.14-0.83-1.82c-0.11-0.45-0.17-0.94-0.17-1.44c0-0.48,0.05-0.95,0.16-1.41c0.16-0.73,0.44-1.43,0.81-2.07c0.81-1.39,2.07-2.48,3.53-2.97c0.32-0.11,0.66-0.19,1-0.24l4.55,2.48c-0.34,0.05-0.68,0.13-1,0.24c-1.46,0.5-2.72,1.59-3.53,2.97c-0.37,0.64-0.65,1.34-0.81,2.07c-0.1,0.46-0.15,0.93-0.16,1.41c0,0.51,0.06,0.99,0.17,1.44c0.17,0.68,0.45,1.3,0.83,1.82C51.81,48.87,52.33,49.33,52.94,49.67z" enable-background="new"/></defs><clipPath id="d"><use overflow="visible" xlink:href="#c"/></clipPath><g clip-path="url(#d)"><path fill="#2a6353" d="M52.94,49.67l-4.55-2.48c-0.61-0.33-1.14-0.8-1.55-1.38c-0.38-0.53-0.66-1.14-0.83-1.82c-0.11-0.45-0.17-0.94-0.17-1.44c0-0.48,0.05-0.95,0.16-1.41c0.07-0.31,0.16-0.62,0.27-0.92l4.55,2.48c-0.11,0.3-0.2,0.6-0.27,0.92c-0.1,0.46-0.15,0.93-0.16,1.41c0,0.51,0.06,0.99,0.17,1.44c0.17,0.68,0.45,1.3,0.83,1.82C51.81,48.87,52.33,49.33,52.94,49.67"/><path fill="#2c6555" d="M50.82,42.7l-4.55-2.48c0.12-0.32,0.26-0.63,0.42-0.92l4.55,2.48C51.08,42.07,50.94,42.38,50.82,42.7"/><path fill="#2e6858" d="M51.24,41.78l-4.55-2.48c0.04-0.08,0.09-0.16,0.13-0.23c0.1-0.17,0.21-0.33,0.32-0.49l4.55,2.48c-0.11,0.16-0.22,0.33-0.32,0.49C51.32,41.62,51.28,41.7,51.24,41.78"/><path fill="#306b5a" d="M51.68,41.05l-4.55-2.48c0.15-0.22,0.32-0.43,0.5-0.63l4.55,2.48C52,40.62,51.84,40.83,51.68,41.05"/><path fill="#326d5c" d="M52.18,40.42l-4.55-2.48c0.18-0.2,0.36-0.39,0.56-0.57l4.55,2.48C52.54,40.03,52.36,40.22,52.18,40.42"/><path fill="#33705e" d="M52.74,39.85l-4.55-2.48c0.21-0.19,0.43-0.37,0.67-0.53l4.55,2.48C53.18,39.49,52.95,39.66,52.74,39.85"/><path fill="#357261" d="M53.41,39.33l-4.55-2.48c0.28-0.19,0.58-0.37,0.88-0.51l4.55,2.48C53.98,38.96,53.69,39.13,53.41,39.33"/><path fill="#377563" d="M54.29,38.81l-4.55-2.48c0.2-0.09,0.4-0.17,0.6-0.24c0.32-0.11,0.66-0.19,1-0.24l4.55,2.48c-0.34,0.05-0.68,0.13-1,0.24C54.69,38.64,54.49,38.72,54.29,38.81"/></g><path fill="#488e7a" d="M55.9,38.33c0.34-0.05,0.67-0.06,0.99-0.04c2.55,0.15,4.48,2.3,4.48,5.2c-0.01,3.26-2.47,6.26-5.49,6.69c-1.85,0.26-3.49-0.5-4.48-1.88c-0.38-0.52-0.66-1.14-0.83-1.82c-0.11-0.45-0.17-0.94-0.17-1.44c0-0.48,0.05-0.95,0.16-1.41c0.16-0.73,0.44-1.43,0.81-2.07c0.81-1.39,2.07-2.48,3.53-2.97C55.22,38.46,55.56,38.38,55.9,38.33z"/><defs><path id="e" d="M34.99,53.34c-0.17-0.68-0.45-1.3-0.83-1.82L38.72,54c0.38,0.53,0.66,1.14,0.83,1.82C38.18,55.08,36.36,54.09,34.99,53.34z" enable-background="new"/></defs><clipPath id="f"><use overflow="visible" xlink:href="#e"/></clipPath><g clip-path="url(#f)"><path fill="#8a8c8e" d="M39.55,55.82l-4.55-2.48c-0.17-0.68-0.45-1.3-0.83-1.82L38.72,54C39.1,54.52,39.38,55.14,39.55,55.82"/></g><path fill="#cdcecf" d="M50.56,46.47c0.17,0.68,0.45,1.3,0.83,1.82l-11.84,7.53c-0.17-0.68-0.45-1.3-0.83-1.82L50.56,46.47z"/><polygon fill="#aaabad" points="38.72 54 34.17 51.52 46.01 43.99 50.56 46.47"/><defs><path id="g" d="M51.37,19.21c0.34-0.05,0.67-0.13,0.99-0.24l4.55,2.48c-0.32,0.11-0.65,0.19-0.99,0.24C54.41,20.86,52.89,20.03,51.37,19.21z" enable-background="new"/></defs><clipPath id="h"><use overflow="visible" xlink:href="#g"/></clipPath><g clip-path="url(#h)"><path fill="#a4a5a7" d="M54.93,21.73l-4.55-2.48c0.32,0.02,0.66,0.01,1-0.04c0.34-0.05,0.67-0.13,0.99-0.24l4.55,2.48c-0.32,0.11-0.65,0.19-0.99,0.24C55.59,21.73,55.25,21.75,54.93,21.73"/></g><polygon fill="#888a8c" points="54.9 38.57 50.34 36.09 50.37 19.25 54.93 21.73"/><defs><path id="i" d="M50.37,19.25c0.32,0.02,0.66,0.01,1-0.04c1.52,0.83,3.04,1.65,4.55,2.48c-0.34,0.05-0.68,0.06-1,0.04C53.56,20.98,51.74,19.99,50.37,19.25z" enable-background="new"/></defs><clipPath id="j"><use overflow="visible" xlink:href="#i"/></clipPath><g clip-path="url(#j)"><path fill="#a4a5a7" d="M54.93,21.73l-4.55-2.48c0.32,0.02,0.66,0.01,1-0.04c0.34-0.05,0.67-0.13,0.99-0.24l4.55,2.48c-0.32,0.11-0.65,0.19-0.99,0.24C55.59,21.73,55.25,21.75,54.93,21.73"/></g><path fill="#cdcecf" d="M54.93,21.73c0.32,0.02,0.66,0.01,1-0.04c0.34-0.05,0.67-0.13,0.99-0.24l-0.03,16.84c-0.32-0.02-0.65-0.01-0.99,0.04c-0.34,0.05-0.68,0.13-1,0.24L54.93,21.73z"/><defs><path id="k" d="M32.61,50.14l4.55,2.48c-0.58-0.31-1.23-0.51-1.93-0.55c-0.32-0.02-0.66-0.01-1,0.04l-4.55-2.48c0.34-0.05,0.68-0.06,1-0.04C31.38,49.63,32.03,49.82,32.61,50.14z" enable-background="new"/></defs><clipPath id="l"><use overflow="visible" xlink:href="#k"/></clipPath><g clip-path="url(#l)"><path fill="#59768c" d="M34.24,52.11l-4.55-2.48c0.34-0.05,0.68-0.06,1-0.04c0.31,0.02,0.61,0.07,0.9,0.14l4.55,2.48c-0.29-0.07-0.59-0.12-0.9-0.14C34.91,52.05,34.58,52.06,34.24,52.11"/><path fill="#567389" d="M36.14,52.21l-4.55-2.48c0.3,0.08,0.59,0.19,0.86,0.32L37,52.53C36.73,52.39,36.44,52.28,36.14,52.21"/><path fill="#547186" d="M37,52.53l-4.55-2.48c0.06,0.03,0.11,0.06,0.16,0.09l4.55,2.48C37.11,52.58,37.06,52.55,37,52.53"/></g><defs><path id="m" d="M54.32,7.87l4.55,2.48c-0.85-0.46-1.85-0.65-2.93-0.5L51.4,7.37C52.47,7.21,53.48,7.41,54.32,7.87z" enable-background="new"/></defs><clipPath id="n"><use overflow="visible" xlink:href="#m"/></clipPath><g clip-path="url(#n)"><path fill="#a88552" d="M55.95,9.84L51.4,7.37c0.67-0.09,1.3-0.05,1.89,0.1l4.55,2.48C57.25,9.79,56.61,9.75,55.95,9.84"/><path fill="#a48250" d="M57.84,9.94l-4.55-2.48c0.3,0.08,0.59,0.19,0.87,0.32l4.55,2.48C58.43,10.13,58.14,10.02,57.84,9.94"/><path fill="#a0804e" d="M58.71,10.26l-4.55-2.48c0.06,0.03,0.11,0.06,0.17,0.09l4.55,2.48C58.82,10.32,58.77,10.29,58.71,10.26"/></g><path fill="#6f91ad" d="M34.24,52.11c0.34-0.05,0.68-0.06,1-0.04c1.43,0.09,2.67,0.8,3.48,1.93c0.38,0.53,0.66,1.14,0.83,1.82c0.11,0.45,0.17,0.94,0.17,1.44c-0.01,3.26-2.48,6.26-5.5,6.69c-3.02,0.43-5.48-1.88-5.47-5.15c0-0.5,0.06-1,0.17-1.49c0.17-0.73,0.45-1.43,0.83-2.06c0.81-1.36,2.06-2.42,3.5-2.91C33.57,52.24,33.9,52.16,34.24,52.11z"/><defs><path id="o" d="M31.29,63.45l-4.55-2.48c-1.53-0.83-2.55-2.54-2.54-4.64c0-0.5,0.06-1,0.17-1.49c0.17-0.73,0.45-1.43,0.83-2.06c0.81-1.36,2.06-2.42,3.5-2.91c0.32-0.11,0.65-0.19,0.99-0.24l4.55,2.48c-0.34,0.05-0.67,0.13-0.99,0.24c-1.44,0.49-2.68,1.55-3.5,2.91c-0.38,0.63-0.67,1.33-0.83,2.06c-0.11,0.48-0.17,0.98-0.17,1.49C28.74,60.91,29.76,62.61,31.29,63.45z" enable-background="new"/></defs><clipPath id="p"><use overflow="visible" xlink:href="#o"/></clipPath><g clip-path="url(#p)"><path fill="#496478" d="M31.29,63.45l-4.55-2.48c-1.53-0.83-2.55-2.54-2.54-4.64c0-0.5,0.06-1,0.17-1.49c0.07-0.29,0.15-0.57,0.25-0.85l4.55,2.48c-0.1,0.28-0.19,0.56-0.25,0.85c-0.11,0.48-0.17,0.98-0.17,1.49C28.74,60.91,29.76,62.61,31.29,63.45"/><path fill="#4c667b" d="M29.17,56.47l-4.55-2.48c0.12-0.32,0.26-0.63,0.42-0.92l4.55,2.48C29.43,55.84,29.29,56.15,29.17,56.47"/><path fill="#4e697e" d="M29.58,55.55l-4.55-2.48c0.05-0.1,0.11-0.2,0.17-0.29c0.09-0.15,0.18-0.29,0.28-0.44l4.55,2.48c-0.1,0.14-0.19,0.29-0.28,0.44C29.69,55.35,29.64,55.45,29.58,55.55"/><path fill="#506b80" d="M30.03,54.82l-4.55-2.48c0.15-0.22,0.32-0.43,0.49-0.63l4.55,2.48C30.35,54.39,30.19,54.6,30.03,54.82"/><path fill="#526e83" d="M30.53,54.19l-4.55-2.48c0.18-0.2,0.36-0.39,0.56-0.57l4.55,2.48C30.89,53.8,30.7,53.99,30.53,54.19"/><path fill="#547186" d="M31.09,53.63l-4.55-2.48c0.21-0.19,0.43-0.37,0.66-0.53l4.55,2.48C31.52,53.26,31.3,53.44,31.09,53.63"/><path fill="#567389" d="M31.75,53.1l-4.55-2.48c0.28-0.19,0.58-0.37,0.88-0.51l4.55,2.48C32.33,52.74,32.03,52.91,31.75,53.1"/><path fill="#59768c" d="M32.63,52.59l-4.55-2.48c0.2-0.09,0.4-0.18,0.61-0.25c0.32-0.11,0.65-0.19,0.99-0.24l4.55,2.48c-0.34,0.05-0.67,0.13-0.99,0.24C33.04,52.41,32.83,52.5,32.63,52.59"/></g><defs><path id="q" d="M53,21.18l-4.55-2.48c-0.63-0.34-1.17-0.83-1.6-1.44c-0.37-0.54-0.65-1.16-0.81-1.85c-0.1-0.43-0.15-0.88-0.15-1.36c0-0.48,0.05-0.94,0.15-1.4c0.16-0.74,0.44-1.44,0.82-2.08c0.99-1.69,2.65-2.94,4.53-3.21l4.55,2.48c-1.87,0.26-3.54,1.51-4.53,3.21c-0.38,0.64-0.66,1.34-0.82,2.08c-0.1,0.46-0.15,0.93-0.15,1.4c0,0.48,0.05,0.93,0.15,1.36c0.16,0.69,0.44,1.32,0.81,1.85C51.83,20.35,52.37,20.84,53,21.18z" enable-background="new"/></defs><clipPath id="r"><use overflow="visible" xlink:href="#q"/></clipPath><g clip-path="url(#r)"><path fill="#8e7144" d="M53,21.18l-4.55-2.48c-0.63-0.34-1.17-0.83-1.6-1.44c-0.37-0.54-0.65-1.16-0.81-1.85c-0.1-0.43-0.15-0.88-0.15-1.36c0-0.48,0.05-0.94,0.15-1.4c0.07-0.31,0.16-0.62,0.27-0.92l4.55,2.48c-0.11,0.3-0.2,0.61-0.27,0.92c-0.1,0.46-0.15,0.93-0.15,1.4c0,0.48,0.05,0.93,0.15,1.36c0.16,0.69,0.44,1.32,0.81,1.85C51.83,20.35,52.37,20.84,53,21.18"/><path fill="#917446" d="M50.87,14.21l-4.55-2.48c0.12-0.32,0.26-0.63,0.41-0.92l4.55,2.48C51.13,13.58,50.99,13.89,50.87,14.21"/><path fill="#957748" d="M51.29,13.29l-4.55-2.48c0.04-0.08,0.09-0.16,0.13-0.24c0.1-0.17,0.2-0.33,0.31-0.49l4.55,2.48c-0.11,0.16-0.22,0.32-0.31,0.49C51.37,13.13,51.33,13.21,51.29,13.29"/><path fill="#997a4a" d="M51.73,12.56l-4.55-2.48c0.15-0.22,0.32-0.43,0.49-0.63l4.55,2.48C52.05,12.13,51.89,12.34,51.73,12.56"/><path fill="#9c7d4c" d="M52.23,11.93l-4.55-2.48c0.18-0.2,0.36-0.39,0.56-0.57l4.55,2.48C52.59,11.54,52.41,11.73,52.23,11.93"/><path fill="#a0804e" d="M52.79,11.37l-4.55-2.48c0.21-0.19,0.43-0.37,0.67-0.53l4.55,2.48C53.22,11,53,11.18,52.79,11.37"/><path fill="#a48250" d="M53.46,10.84L48.9,8.36c0.28-0.19,0.58-0.37,0.88-0.51l4.55,2.48C54.03,10.47,53.74,10.64,53.46,10.84"/><path fill="#a88552" d="M54.34,10.33l-4.55-2.48c0.51-0.24,1.05-0.41,1.61-0.49l4.55,2.48C55.39,9.92,54.85,10.09,54.34,10.33"/></g><path fill="#d3a666" d="M55.95,9.84c3.03-0.43,5.48,1.88,5.47,5.15c-0.01,2.9-1.95,5.59-4.5,6.46c-0.32,0.11-0.65,0.19-0.99,0.24c-0.34,0.05-0.68,0.06-1,0.04c-1.46-0.09-2.71-0.83-3.52-1.98c-0.37-0.54-0.65-1.16-0.81-1.85c-0.1-0.43-0.15-0.88-0.15-1.36c0-0.48,0.05-0.94,0.15-1.4c0.16-0.74,0.44-1.44,0.82-2.08C52.41,11.36,54.08,10.11,55.95,9.84z"/><polygon fill="#a2a4a6" points="35.27 36.1 30.71 33.62 46.81 39.07 51.37 41.54"/><polygon fill="#888a8c" points="33.25 52.34 28.69 49.87 28.72 36.25 33.27 38.73"/><defs><path id="s" d="M29.72,32.6c0.34-0.05,0.68-0.13,1-0.24l4.55,2.48c-0.32,0.11-0.66,0.19-1,0.24C32.75,34.25,31.23,33.42,29.72,32.6z" enable-background="new"/></defs><clipPath id="t"><use overflow="visible" xlink:href="#s"/></clipPath><g clip-path="url(#t)"><path fill="#a4a5a7" d="M33.28,35.12l-4.55-2.48c0.32,0.02,0.65,0.01,0.99-0.04c0.34-0.05,0.68-0.13,1-0.24l4.55,2.48c-0.32,0.11-0.66,0.19-1,0.24C33.93,35.12,33.6,35.13,33.28,35.12"/></g><polygon fill="#aaabad" points="38.82 25.18 34.27 22.7 46.04 15.41 50.6 17.89"/><path fill="#cdcecf" d="M50.6,17.89c0.16,0.69,0.44,1.32,0.81,1.85l-11.78,7.29c-0.16-0.69-0.43-1.32-0.8-1.85L50.6,17.89z"/><defs><path id="u" d="M35.07,24.55c-0.16-0.69-0.43-1.32-0.8-1.85l4.55,2.48c0.37,0.54,0.65,1.16,0.8,1.85C38.26,26.29,36.44,25.29,35.07,24.55z" enable-background="new"/></defs><clipPath id="v"><use overflow="visible" xlink:href="#u"/></clipPath><g clip-path="url(#v)"><path fill="#8a8c8e" d="M39.62,27.03l-4.55-2.48c-0.16-0.69-0.43-1.32-0.8-1.85l4.55,2.48C39.19,25.71,39.47,26.34,39.62,27.03"/></g><defs><path id="w" d="M28.72,32.64c0.32,0.02,0.65,0.01,0.99-0.04c1.52,0.83,3.04,1.65,4.55,2.48c-0.34,0.05-0.67,0.06-0.99,0.04C31.91,34.37,30.09,33.38,28.72,32.64z" enable-background="new"/></defs><clipPath id="x"><use overflow="visible" xlink:href="#w"/></clipPath><g clip-path="url(#x)"><path fill="#a4a5a7" d="M33.28,35.12l-4.55-2.48c0.32,0.02,0.65,0.01,0.99-0.04c0.34-0.05,0.68-0.13,1-0.24l4.55,2.48c-0.32,0.11-0.66,0.19-1,0.24C33.93,35.12,33.6,35.13,33.28,35.12"/></g><polygon fill="#888a8c" points="33.27 36.38 28.72 33.9 28.72 32.64 33.28 35.12"/><defs><path id="y" d="M32.67,21.26l4.55,2.48c-0.58-0.32-1.23-0.51-1.93-0.55c-0.32-0.02-0.66-0.01-1,0.04l-4.55-2.48c0.34-0.05,0.68-0.06,1-0.04C31.44,20.75,32.09,20.94,32.67,21.26z" enable-background="new"/></defs><clipPath id="z"><use overflow="visible" xlink:href="#y"/></clipPath><g clip-path="url(#z)"><path fill="#9a1740" d="M34.29,23.23l-4.55-2.48c0.34-0.05,0.68-0.06,1-0.04c0.31,0.02,0.61,0.07,0.9,0.14l4.55,2.48c-0.29-0.08-0.59-0.12-0.9-0.14C34.97,23.17,34.63,23.18,34.29,23.23"/><path fill="#97153f" d="M36.19,23.33l-4.55-2.48c0.3,0.08,0.59,0.19,0.86,0.32l4.55,2.48C36.78,23.52,36.49,23.41,36.19,23.33"/><path fill="#93143d" d="M37.06,23.65l-4.55-2.48c0.06,0.03,0.11,0.06,0.16,0.09l4.55,2.48C37.17,23.71,37.11,23.68,37.06,23.65"/></g><polygon fill="#a2a3a5" points="17.93 51.04 13.38 48.56 25.2 52.78 29.75 55.26"/><path fill="#cdcecf" d="M17.93,51.04l11.82,4.21c-0.38,0.63-0.67,1.33-0.83,2.06L17.1,53.11C17.48,52.47,17.77,51.78,17.93,51.04z"/><defs><path id="A" d="M12.54,50.63c0.38-0.64,0.67-1.33,0.84-2.07l4.55,2.48c-0.17,0.73-0.46,1.43-0.84,2.07C15.73,52.37,13.91,51.38,12.54,50.63z" enable-background="new"/></defs><clipPath id="B"><use overflow="visible" xlink:href="#A"/></clipPath><g clip-path="url(#B)"><path fill="#929395" d="M17.1,53.11l-4.55-2.48c0.06-0.1,0.12-0.2,0.17-0.3l4.55,2.48C17.21,52.91,17.16,53.01,17.1,53.11"/><path fill="#8e8f92" d="M17.27,52.81l-4.55-2.48c0.16-0.3,0.3-0.6,0.41-0.92l4.55,2.48C17.57,52.21,17.43,52.51,17.27,52.81"/><path fill="#8a8c8e" d="M17.68,51.89l-4.55-2.48c0.1-0.28,0.19-0.56,0.25-0.85l4.55,2.48C17.87,51.33,17.78,51.61,17.68,51.89"/></g><path fill="#cdcecf" d="M39.66,9.07l11.76,3.98c-0.38,0.64-0.66,1.34-0.82,2.08l-11.76-3.98C39.22,10.51,39.5,9.81,39.66,9.07z"/><polygon fill="#a2a4a6" points="39.66 9.07 35.1 6.59 46.87 10.57 51.42 13.05"/><defs><path id="C" d="M34.29,8.67c0.37-0.64,0.65-1.34,0.81-2.08l4.55,2.48c-0.16,0.74-0.44,1.44-0.81,2.08C37.48,10.41,35.66,9.42,34.29,8.67z" enable-background="new"/></defs><clipPath id="D"><use overflow="visible" xlink:href="#C"/></clipPath><g clip-path="url(#D)"><path fill="#929395" d="M38.85,11.15l-4.55-2.48c0.04-0.07,0.09-0.15,0.13-0.22l4.55,2.48C38.93,11,38.89,11.08,38.85,11.15"/><path fill="#8e8f92" d="M38.97,10.93l-4.55-2.48c0.16-0.3,0.3-0.6,0.41-0.92l4.55,2.48C39.27,10.32,39.13,10.63,38.97,10.93"/><path fill="#8a8c8e" d="M39.39,10.01l-4.55-2.48c0.11-0.3,0.2-0.62,0.27-0.93l4.55,2.48C39.59,9.39,39.5,9.7,39.39,10.01"/></g><path fill="#c02452" d="M34.29,23.23c0.34-0.05,0.68-0.06,1-0.04c1.46,0.09,2.72,0.83,3.53,1.99c0.37,0.54,0.65,1.16,0.8,1.85c0.1,0.43,0.15,0.88,0.15,1.35c-0.01,2.9-1.95,5.59-4.5,6.46c-0.32,0.11-0.66,0.19-1,0.24c-0.34,0.05-0.67,0.06-0.99,0.04c-2.55-0.15-4.48-2.3-4.48-5.2c0-0.47,0.05-0.94,0.15-1.39c0.16-0.73,0.44-1.44,0.81-2.08c0.81-1.39,2.08-2.49,3.54-2.98C33.62,23.36,33.95,23.28,34.29,23.23z"/><g><defs><path id="E" d="M31.35,34.57l-4.55-2.48c-1.54-0.84-2.55-2.55-2.55-4.65c0-0.47,0.05-0.94,0.15-1.39c0.16-0.73,0.44-1.44,0.81-2.08c0.81-1.39,2.08-2.49,3.54-2.98c0.32-0.11,0.65-0.19,0.99-0.24l4.55,2.48c-0.34,0.05-0.67,0.13-0.99,0.24c-1.47,0.5-2.73,1.59-3.54,2.98c-0.37,0.64-0.65,1.34-0.81,2.08c-0.1,0.45-0.15,0.92-0.15,1.39C28.79,32.02,29.81,33.74,31.35,34.57z" enable-background="new"/></defs><clipPath id="F"><use overflow="visible" xlink:href="#E"/></clipPath><g clip-path="url(#F)"><path fill="#820c34" d="M31.35,34.57l-4.55-2.48c-1.54-0.84-2.55-2.55-2.55-4.65c0-0.47,0.05-0.94,0.15-1.39c0.07-0.32,0.16-0.63,0.27-0.94l4.55,2.48c-0.11,0.31-0.2,0.62-0.27,0.94c-0.1,0.45-0.15,0.92-0.15,1.39C28.79,32.02,29.81,33.74,31.35,34.57"/><path fill="#860e36" d="M29.22,27.59l-4.55-2.48c0.12-0.32,0.26-0.63,0.41-0.92l4.55,2.48C29.48,26.97,29.34,27.27,29.22,27.59"/><path fill="#890f37" d="M29.64,26.67l-4.55-2.48c0.04-0.07,0.08-0.14,0.12-0.22c0.1-0.17,0.21-0.34,0.33-0.51l4.55,2.48c-0.12,0.16-0.22,0.33-0.33,0.51C29.72,26.52,29.68,26.6,29.64,26.67"/><path fill="#8c1139" d="M30.08,25.94l-4.55-2.48c0.15-0.22,0.32-0.43,0.49-0.63l4.55,2.48C30.4,25.52,30.24,25.73,30.08,25.94"/><path fill="#90123b" d="M30.58,25.32l-4.55-2.48c0.18-0.2,0.36-0.39,0.56-0.56l4.55,2.48C30.94,24.93,30.75,25.12,30.58,25.32"/><path fill="#93143d" d="M31.14,24.75l-4.55-2.48c0.21-0.19,0.43-0.37,0.66-0.53l4.55,2.48C31.57,24.39,31.35,24.56,31.14,24.75"/><path fill="#97153f" d="M31.8,24.23l-4.55-2.48c0.28-0.19,0.58-0.37,0.88-0.51l4.55,2.48C32.38,23.86,32.08,24.03,31.8,24.23"/><path fill="#9a1740" d="M32.68,23.72l-4.55-2.48c0.2-0.09,0.41-0.18,0.62-0.25c0.32-0.11,0.65-0.19,0.99-0.24l4.55,2.48c-0.34,0.05-0.67,0.13-0.99,0.24C33.09,23.54,32.88,23.62,32.68,23.72"/></g></g><polygon fill="#aaabad" points="17.15 46.35 12.59 43.88 28.72 33.9 33.27 36.38"/><path fill="#cdcecf" d="M35.27,34.83l0,1.27l16.1,5.44c-0.37,0.64-0.65,1.34-0.81,2.07l-15.29-5.17l-0.03,13.62c-0.32-0.02-0.66-0.01-1,0.04c-0.34,0.05-0.67,0.13-0.99,0.24l0.03-13.62l-15.31,9.48c-0.16-0.69-0.44-1.32-0.81-1.85l16.13-9.97l0-1.26c0.32,0.02,0.65,0.01,0.99-0.04C34.61,35.03,34.95,34.94,35.27,34.83z"/><g><defs><path id="G" d="M13.4,45.73c-0.16-0.69-0.44-1.32-0.81-1.85l4.55,2.48c0.37,0.54,0.65,1.16,0.81,1.85C16.59,47.46,14.77,46.47,13.4,45.73z" enable-background="new"/></defs><clipPath id="H"><use overflow="visible" xlink:href="#G"/></clipPath><g clip-path="url(#H)"><path fill="#8a8c8e" d="M17.96,48.21l-4.55-2.48c-0.16-0.69-0.44-1.32-0.81-1.85l4.55,2.48C17.52,46.89,17.8,47.51,17.96,48.21"/></g></g><g><defs><path id="I" d="M29.75,11.89c0.34-0.05,0.68-0.13,1-0.24l4.55,2.48c-0.32,0.11-0.66,0.19-1,0.24C32.79,13.54,31.27,12.72,29.75,11.89z" enable-background="new"/></defs><clipPath id="J"><use overflow="visible" xlink:href="#I"/></clipPath><g clip-path="url(#J)"><path fill="#a4a5a7" d="M33.32,14.41l-4.55-2.48c0.32,0.02,0.65,0.01,0.99-0.04c0.34-0.05,0.68-0.13,1-0.24l4.55,2.48c-0.32,0.11-0.66,0.19-1,0.24C33.97,14.42,33.64,14.43,33.32,14.41"/></g></g><g><defs><path id="K" d="M28.76,11.93c0.32,0.02,0.65,0.01,0.99-0.04c1.52,0.83,3.04,1.65,4.55,2.48c-0.34,0.05-0.67,0.06-0.99,0.04C31.95,13.67,30.13,12.68,28.76,11.93z" enable-background="new"/></defs><clipPath id="L"><use overflow="visible" xlink:href="#K"/></clipPath><g clip-path="url(#L)"><path fill="#a4a5a7" d="M33.32,14.41l-4.55-2.48c0.32,0.02,0.65,0.01,0.99-0.04c0.34-0.05,0.68-0.13,1-0.24l4.55,2.48c-0.32,0.11-0.66,0.19-1,0.24C33.97,14.42,33.64,14.43,33.32,14.41"/></g></g><polygon fill="#888a8c" points="33.3 23.47 28.74 20.99 28.76 11.93 33.32 14.41"/><path fill="#cdcecf" d="M35.31,14.13l-0.02,9.06c-0.32-0.02-0.66-0.01-1,0.04c-0.34,0.05-0.67,0.13-0.99,0.24l0.02-9.06c0.32,0.02,0.65,0.01,0.99-0.04C34.65,14.32,34.98,14.24,35.31,14.13z"/><g><defs><path id="M" d="M11,42.44l4.55,2.48c-0.58-0.32-1.23-0.51-1.93-0.55c-0.32-0.02-0.65-0.01-0.99,0.04l-4.55-2.48c0.34-0.05,0.67-0.06,0.99-0.04C9.76,41.93,10.42,42.12,11,42.44z" enable-background="new"/></defs><clipPath id="N"><use overflow="visible" xlink:href="#M"/></clipPath><g clip-path="url(#N)"><path fill="#a7673b" d="M12.63,44.41l-4.55-2.48c0.34-0.05,0.67-0.06,0.99-0.04c0.31,0.02,0.61,0.07,0.91,0.14l4.55,2.48c-0.29-0.08-0.59-0.12-0.91-0.14C13.3,44.35,12.97,44.36,12.63,44.41"/><path fill="#a3653a" d="M14.52,44.51l-4.55-2.48c0.3,0.08,0.59,0.19,0.86,0.32l4.55,2.48C15.11,44.7,14.82,44.59,14.52,44.51"/><path fill="#a06238" d="M15.39,44.83l-4.55-2.48c0.06,0.03,0.11,0.06,0.16,0.09l4.55,2.48C15.5,44.89,15.44,44.86,15.39,44.83"/></g></g><g><defs><path id="O" d="M32.7,0.56l4.55,2.48c-0.85-0.46-1.85-0.66-2.93-0.5l-4.55-2.48C30.85-0.1,31.85,0.09,32.7,0.56z" enable-background="new"/></defs><clipPath id="P"><use overflow="visible" xlink:href="#O"/></clipPath><g clip-path="url(#P)"><path fill="#284159" d="M34.33,2.53l-4.55-2.48c0.66-0.09,1.3-0.05,1.89,0.1l4.55,2.48C35.63,2.47,34.99,2.43,34.33,2.53"/><path fill="#274058" d="M36.22,2.62l-4.55-2.48c0.3,0.08,0.59,0.19,0.87,0.32l4.55,2.48C36.81,2.81,36.52,2.7,36.22,2.62"/><path fill="#263f56" d="M37.09,2.95l-4.55-2.48c0.06,0.03,0.11,0.06,0.17,0.09l4.55,2.48C37.2,3,37.15,2.97,37.09,2.95"/></g></g><g><defs><path id="Q" d="M9.68,55.75l-4.55-2.48c-1.53-0.83-2.55-2.54-2.54-4.64c0.01-2.9,1.94-5.59,4.49-6.46c0.32-0.11,0.66-0.19,1-0.24l4.55,2.48c-0.34,0.05-0.68,0.13-1,0.24c-2.55,0.87-4.49,3.56-4.49,6.46C7.13,53.21,8.15,54.92,9.68,55.75z" enable-background="new"/></defs><clipPath id="R"><use overflow="visible" xlink:href="#Q"/></clipPath><g clip-path="url(#R)"><path fill="#8d562f" d="M9.68,55.75l-4.55-2.48c-1.53-0.83-2.55-2.54-2.54-4.64c0-0.8,0.15-1.59,0.42-2.33l4.55,2.48c-0.27,0.74-0.42,1.52-0.42,2.33C7.13,53.21,8.15,54.92,9.68,55.75"/><path fill="#915931" d="M7.55,48.78L3,46.3c0.12-0.32,0.26-0.63,0.42-0.93l4.55,2.48C7.81,48.15,7.67,48.46,7.55,48.78"/><path fill="#945b33" d="M7.97,47.85l-4.55-2.48c0.14-0.25,0.29-0.5,0.45-0.73l4.55,2.48C8.26,47.36,8.11,47.6,7.97,47.85"/><path fill="#985e35" d="M8.42,47.12l-4.55-2.48c0.15-0.22,0.32-0.43,0.49-0.63l4.55,2.48C8.74,46.7,8.58,46.9,8.42,47.12"/><path fill="#9c6036" d="M8.92,46.5l-4.55-2.48c0.18-0.2,0.36-0.39,0.56-0.57l4.55,2.48C9.28,46.11,9.09,46.3,8.92,46.5"/><path fill="#a06238" d="M9.48,45.93l-4.55-2.48c0.21-0.19,0.43-0.37,0.66-0.53l4.55,2.48C9.91,45.56,9.69,45.74,9.48,45.93"/><path fill="#a3653a" d="M10.14,45.4l-4.55-2.48c0.28-0.2,0.58-0.37,0.89-0.51l4.55,2.48C10.72,45.04,10.42,45.21,10.14,45.4"/><path fill="#a7673b" d="M11.03,44.89l-4.55-2.48c0.19-0.09,0.39-0.17,0.6-0.24c0.32-0.11,0.66-0.19,1-0.24l4.55,2.48c-0.34,0.05-0.68,0.13-1,0.24C11.42,44.72,11.22,44.8,11.03,44.89"/></g></g><path fill="#d1804c" d="M12.63,44.41c0.34-0.05,0.67-0.06,0.99-0.04c1.46,0.08,2.72,0.82,3.53,1.98c0.37,0.54,0.65,1.16,0.81,1.85c0.1,0.43,0.15,0.88,0.15,1.36c0,0.5-0.06,1-0.17,1.48c-0.17,0.73-0.46,1.43-0.84,2.07c-1,1.66-2.64,2.88-4.49,3.14c-3.03,0.43-5.48-1.88-5.47-5.15c0.01-2.9,1.94-5.59,4.49-6.46C11.95,44.54,12.28,44.46,12.63,44.41z"/><g><defs><path id="S" d="M31.38,13.87l-4.55-2.48c-0.63-0.34-1.18-0.84-1.6-1.44c-0.37-0.53-0.64-1.15-0.8-1.84c-0.1-0.43-0.15-0.88-0.15-1.36c0.01-3.27,2.47-6.27,5.49-6.7l4.55,2.48c-3.02,0.43-5.49,3.43-5.49,6.7c0,0.48,0.05,0.93,0.15,1.36c0.16,0.69,0.43,1.31,0.8,1.84C30.2,13.03,30.75,13.52,31.38,13.87z" enable-background="new"/></defs><clipPath id="T"><use overflow="visible" xlink:href="#S"/></clipPath><g clip-path="url(#T)"><path fill="#21394f" d="M31.38,13.87l-4.55-2.48c-0.63-0.34-1.18-0.84-1.6-1.44c-0.37-0.53-0.64-1.15-0.8-1.84c-0.1-0.43-0.15-0.88-0.15-1.36c0-0.8,0.15-1.59,0.42-2.33l4.55,2.48c-0.27,0.74-0.42,1.53-0.42,2.33c0,0.48,0.05,0.93,0.15,1.36c0.16,0.69,0.43,1.31,0.8,1.84C30.2,13.03,30.75,13.52,31.38,13.87"/><path fill="#223a51" d="M29.26,6.89l-4.55-2.48c0.12-0.32,0.26-0.63,0.42-0.93l4.55,2.48C29.52,6.27,29.38,6.57,29.26,6.89"/><path fill="#233b52" d="M29.68,5.97l-4.55-2.48c0.14-0.25,0.29-0.49,0.45-0.73l4.55,2.48C29.96,5.47,29.81,5.72,29.68,5.97"/><path fill="#243c53" d="M30.12,5.24l-4.55-2.48c0.15-0.22,0.32-0.43,0.5-0.63l4.55,2.48C30.44,4.81,30.28,5.02,30.12,5.24"/><path fill="#253e55" d="M30.62,4.61l-4.55-2.48c0.18-0.2,0.36-0.39,0.56-0.57l4.55,2.48C30.98,4.22,30.8,4.41,30.62,4.61"/><path fill="#263f56" d="M31.18,4.05l-4.55-2.48c0.21-0.19,0.43-0.37,0.66-0.53l4.55,2.48C31.61,3.68,31.39,3.86,31.18,4.05"/><path fill="#274058" d="M31.84,3.52l-4.55-2.48c0.28-0.2,0.58-0.37,0.89-0.51l4.55,2.48C32.43,3.15,32.13,3.32,31.84,3.52"/><path fill="#284159" d="M32.73,3.01l-4.55-2.48c0.51-0.24,1.04-0.4,1.6-0.48l4.55,2.48C33.78,2.61,33.24,2.77,32.73,3.01"/></g></g><path fill="#314d68" d="M34.33,2.53c3.03-0.43,5.48,1.89,5.48,5.15c0,0.47-0.05,0.94-0.15,1.39c-0.16,0.74-0.44,1.44-0.81,2.08c-0.81,1.39-2.08,2.48-3.54,2.98c-0.32,0.11-0.66,0.19-1,0.24c-0.34,0.05-0.67,0.06-0.99,0.04c-1.46-0.08-2.72-0.83-3.53-1.99c-0.37-0.53-0.64-1.15-0.8-1.84c-0.1-0.43-0.15-0.88-0.15-1.36C28.84,5.96,31.3,2.95,34.33,2.53z"/><g><defs><path id="U" d="M12.63,22.07c0.38-0.64,0.66-1.34,0.82-2.08L18,22.47c-0.16,0.74-0.44,1.44-0.82,2.08C15.82,23.81,14,22.82,12.63,22.07z" enable-background="new"/></defs><clipPath id="V"><use overflow="visible" xlink:href="#U"/></clipPath><g clip-path="url(#V)"><path fill="#929395" d="M17.19,24.55l-4.55-2.48c0.05-0.08,0.09-0.15,0.13-0.23l4.55,2.48C17.28,24.4,17.23,24.48,17.19,24.55"/><path fill="#8e8f92" d="M17.32,24.32l-4.55-2.48c0.16-0.3,0.3-0.61,0.42-0.92l4.55,2.48C17.62,23.71,17.48,24.02,17.32,24.32"/><path fill="#8a8c8e" d="M17.73,23.4l-4.55-2.48c0.11-0.3,0.2-0.61,0.27-0.93L18,22.47C17.94,22.79,17.85,23.1,17.73,23.4"/></g></g><polygon fill="#a2a4a6" points="18 22.47 13.45 19.99 25.2 23.98 29.76 26.45"/><path fill="#cdcecf" d="M18,22.47l11.75,3.98c-0.37,0.64-0.65,1.34-0.81,2.08l-11.76-3.98C17.56,23.91,17.84,23.21,18,22.47z"/><g><defs><path id="W" d="M8.1,25.29c0.34-0.05,0.67-0.13,0.99-0.24l4.55,2.48c-0.32,0.11-0.65,0.19-0.99,0.24C11.14,26.94,9.62,26.11,8.1,25.29z" enable-background="new"/></defs><clipPath id="X"><use overflow="visible" xlink:href="#W"/></clipPath><g clip-path="url(#X)"><path fill="#a4a5a7" d="M11.66,27.81L7.1,25.33c0.32,0.02,0.66,0.01,1-0.04c0.34-0.05,0.67-0.13,0.99-0.24l4.55,2.48c-0.32,0.11-0.65,0.19-0.99,0.24C12.32,27.81,11.98,27.83,11.66,27.81"/></g></g><g><defs><path id="Y" d="M13.46,17.23c-0.16-0.69-0.44-1.32-0.81-1.85l4.55,2.48c0.37,0.53,0.65,1.16,0.81,1.85C16.64,18.97,14.82,17.98,13.46,17.23z" enable-background="new"/></defs><clipPath id="Z"><use overflow="visible" xlink:href="#Y"/></clipPath><g clip-path="url(#Z)"><path fill="#8a8c8e" d="M18.01,19.71l-4.55-2.48c-0.16-0.69-0.44-1.32-0.81-1.85l4.55,2.48C17.57,18.39,17.85,19.02,18.01,19.71"/></g></g><polygon fill="#aaabad" points="17.2 17.86 12.65 15.38 24.43 8.11 28.98 10.58"/><path fill="#cdcecf" d="M28.98,10.58c0.16,0.69,0.43,1.31,0.8,1.84l-11.77,7.29c-0.16-0.69-0.44-1.32-0.81-1.85L28.98,10.58z"/><polygon fill="#888a8c" points="11.63 44.65 7.07 42.17 7.1 25.33 11.66 27.81"/><path fill="#cdcecf" d="M11.66,27.81c0.32,0.02,0.66,0.01,1-0.04c0.34-0.05,0.67-0.13,0.99-0.24l-0.03,16.84c-0.32-0.02-0.65-0.01-0.99,0.04c-0.34,0.05-0.68,0.13-1,0.24L11.66,27.81z"/><g><defs><path id="aa" d="M7.1,25.33c0.32,0.02,0.66,0.01,1-0.04c1.52,0.83,3.04,1.65,4.55,2.48c-0.34,0.05-0.68,0.06-1,0.04C10.29,27.06,8.47,26.07,7.1,25.33z" enable-background="new"/></defs><clipPath id="ab"><use overflow="visible" xlink:href="#aa"/></clipPath><g clip-path="url(#ab)"><path fill="#a4a5a7" d="M11.66,27.81L7.1,25.33c0.32,0.02,0.66,0.01,1-0.04c0.34-0.05,0.67-0.13,0.99-0.24l4.55,2.48c-0.32,0.11-0.65,0.19-0.99,0.24C12.32,27.81,11.98,27.83,11.66,27.81"/></g></g><g><defs><path id="ac" d="M11.06,13.95l4.55,2.48c-0.85-0.46-1.85-0.66-2.93-0.5l-4.55-2.48C9.2,13.3,10.21,13.49,11.06,13.95z" enable-background="new"/></defs><clipPath id="ad"><use overflow="visible" xlink:href="#ac"/></clipPath><g clip-path="url(#ad)"><path fill="#669288" d="M12.68,15.92l-4.55-2.48c0.67-0.09,1.31-0.05,1.9,0.1l4.55,2.48C13.99,15.87,13.35,15.83,12.68,15.92"/><path fill="#648f85" d="M14.58,16.02l-4.55-2.48c0.3,0.08,0.59,0.19,0.86,0.32l4.55,2.48C15.17,16.21,14.88,16.1,14.58,16.02"/><path fill="#618c82" d="M15.45,16.34l-4.55-2.48c0.06,0.03,0.11,0.06,0.17,0.09l4.55,2.48C15.56,16.4,15.5,16.37,15.45,16.34"/></g></g><g><defs><path id="ae" d="M9.74,27.26l-4.55-2.48c-1.54-0.84-2.55-2.55-2.55-4.65c0.01-3.27,2.47-6.26,5.49-6.69l4.55,2.48c-3.03,0.43-5.49,3.42-5.49,6.69C7.18,24.72,8.2,26.43,9.74,27.26z" enable-background="new"/></defs><clipPath id="af"><use overflow="visible" xlink:href="#ae"/></clipPath><g clip-path="url(#af)"><path fill="#557d74" d="M9.74,27.26l-4.55-2.48c-1.54-0.84-2.55-2.55-2.55-4.65c0-0.8,0.15-1.59,0.42-2.33l4.55,2.48c-0.27,0.74-0.42,1.52-0.42,2.33C7.18,24.72,8.2,26.43,9.74,27.26"/><path fill="#578077" d="M7.61,20.29l-4.55-2.48c0.12-0.32,0.26-0.63,0.42-0.92l4.55,2.48C7.86,19.66,7.73,19.97,7.61,20.29"/><path fill="#5a827a" d="M8.02,19.36l-4.55-2.48c0.13-0.25,0.28-0.49,0.45-0.73l4.55,2.48C8.31,18.87,8.16,19.11,8.02,19.36"/><path fill="#5c857d" d="M8.47,18.64l-4.55-2.48c0.15-0.22,0.32-0.43,0.49-0.63l4.55,2.48C8.79,18.21,8.62,18.42,8.47,18.64"/><path fill="#5f8980" d="M8.97,18.01l-4.55-2.48c0.18-0.2,0.36-0.39,0.56-0.57l4.55,2.48C9.33,17.62,9.14,17.81,8.97,18.01"/><path fill="#618c82" d="M9.53,17.44l-4.55-2.48c0.21-0.19,0.43-0.37,0.66-0.53l4.55,2.48C9.96,17.08,9.74,17.25,9.53,17.44"/><path fill="#648f85" d="M10.19,16.92l-4.55-2.48c0.28-0.2,0.58-0.37,0.89-0.51l4.55,2.48C10.77,16.55,10.47,16.72,10.19,16.92"/><path fill="#669288" d="M11.08,16.41l-4.55-2.48c0.51-0.24,1.04-0.4,1.6-0.48l4.55,2.48C12.12,16,11.59,16.17,11.08,16.41"/></g></g><path fill="#80b5a7" d="M12.68,15.92c1.87-0.26,3.53,0.52,4.52,1.93c0.37,0.53,0.65,1.16,0.81,1.85c0.1,0.43,0.15,0.88,0.15,1.36c0,0.48-0.05,0.94-0.15,1.4c-0.16,0.74-0.44,1.44-0.82,2.08c-0.81,1.39-2.08,2.48-3.54,2.98c-0.32,0.11-0.65,0.19-0.99,0.24c-0.34,0.05-0.68,0.06-1,0.04c-2.55-0.15-4.48-2.3-4.47-5.2C7.19,19.35,9.65,16.35,12.68,15.92z"/></svg>